<svg width="183" height="24" viewBox="0 0 183 24" fill="none" xmlns="http://www.w3.org/2000/svg">
<g opacity="0.3" clip-path="url(#clip0_1_50749)">
<path d="M156.202 9.52369V23.9861H160.791V14.3445H177.571V23.9861H182.159V9.52369H156.202ZM160.266 4.83496H177.964C180.455 4.3727 182.225 2.12739 182.749 0.0141602H155.481C156.006 2.12739 157.841 4.30666 160.266 4.83496ZM142.241 23.9861C144.535 22.9955 145.78 21.2785 146.305 19.2974H125.657V0.0801986H121.003V23.9861H142.241ZM86.5904 4.76893H102.977C105.468 4.0425 107.5 2.12739 108.025 0.0801986H82.0676V14.2124H103.305V19.1653H86.6559C84.034 19.8917 81.8054 21.6748 80.6911 23.9861H107.893V9.52369H86.6559L86.5904 4.76893ZM46.2129 4.83496H63.9108C66.4016 4.3727 68.237 2.12739 68.6958 0.0141602H41.3623C41.8867 2.12739 43.722 4.30666 46.2129 4.83496ZM46.2129 14.2785H63.9108C66.4016 13.8162 68.237 11.5709 68.6958 9.45765H41.3623C41.8867 11.5709 43.722 13.7502 46.2129 14.2785ZM46.2129 23.9861H63.9108C66.4016 23.5238 68.237 21.2785 68.6958 19.1653H41.3623C41.8867 21.2785 43.722 23.5238 46.2129 23.9861Z" fill="#202430"/>
<path d="M0.132812 0.0801986C0.657196 2.19343 2.49254 4.30666 4.91781 4.83496H12.3903L12.7836 4.96704V23.9201H17.4375V4.96704L17.8308 4.83496H25.3032C27.794 4.17458 29.5638 2.19343 30.0882 0.0801986V0.0141602L0.132812 0.0801986Z" fill="#202430"/>
</g>
<defs>
<clipPath id="clip0_1_50749">
<rect width="182.682" height="24" fill="white" transform="translate(0.132812)"/>
</clipPath>
</defs>
</svg>
